<?xml version="1.0" encoding="UTF-8" standalone="no"?>
<svg width="229px" height="58px" viewBox="0 0 229 58" version="1.1" xmlns="http://www.w3.org/2000/svg" xmlns:xlink="http://www.w3.org/1999/xlink" xmlns:sketch="http://www.bohemiancoding.com/sketch/ns">
    <!-- Generator: Sketch 3.2.1 (9977) - http://www.bohemiancoding.com/sketch -->
    <title>angularjs-logo</title>
    <desc>Created with Sketch.</desc>
    <defs></defs>
    <g id="Page-1" stroke="none" stroke-width="1" fill="none" fill-rule="evenodd" sketch:type="MSPage">
        <g id="Desktop" sketch:type="MSArtboardGroup" transform="translate(-209.000000, -2600.000000)">
            <g id="Tools-Logos" sketch:type="MSLayerGroup" transform="translate(78.000000, 2599.000000)">
                <g id="angularjs-logo" transform="translate(131.000000, 1.000000)" sketch:type="MSShapeGroup">
                    <path d="M58.9126446,41.6808649 L58.9126446,18.7183784 L61.956859,18.7183784 L76.3572993,37.2162162 L76.3572993,18.7183784 L79.2359914,18.7183784 L79.2359914,41.6808649 L76.1921094,41.6808649 L61.7929986,23.0205405 L61.7929986,41.6808649 L58.9126446,41.6808649 Z" id="Shape" fill="#CCCCCC"></path>
                    <path d="M102.60322,40.7815135 C100.706029,41.4891892 98.6589367,41.8417297 96.4649353,41.8417297 C87.9418662,41.8417297 83.6785036,37.8544865 83.6785036,29.8787027 C83.6785036,22.3313514 87.7926302,18.5571892 96.019554,18.5571892 C98.3800748,18.5571892 100.574741,18.8792432 102.602888,19.5223784 L102.602888,22.0913514 C100.574409,21.3418378 98.4887612,20.9665946 96.3486043,20.9665946 C89.9317899,20.9665946 86.7240475,23.9383784 86.7240475,29.8787027 C86.7240475,36.2477838 89.8816014,39.4339459 96.2026921,39.4339459 C97.2107827,39.4339459 98.329554,39.3048649 99.5593381,39.047027 L99.5593381,31.2437838 L102.60322,31.2437838 L102.60322,40.7815135 L102.60322,40.7815135 Z" id="Shape" fill="#CCCCCC"></path>
                    <path d="M107.458209,32.8170811 L107.458209,18.7193514 L110.500429,18.7193514 L110.500429,32.8167568 C110.500429,37.2272432 112.750269,39.4349189 117.248953,39.4349189 C121.746306,39.4349189 123.996147,37.2269189 123.996147,32.8167568 L123.996147,18.7193514 L127.040029,18.7193514 L127.040029,32.8167568 C127.040029,38.8352432 123.776447,41.8427027 117.248953,41.8427027 C110.72179,41.843027 107.458209,38.8352432 107.458209,32.8170811 L107.458209,32.8170811 Z" id="Shape" fill="#CCCCCC"></path>
                    <path d="M135.514571,18.7183784 L135.514571,39.2730811 L147.82604,39.2730811 L147.82604,41.6808649 L132.472019,41.6808649 L132.472019,18.7183784 L135.514571,18.7183784 Z" id="Shape" fill="#CCCCCC"></path>
                    <path d="M152.218364,41.6815135 L149.059481,41.6815135 L160.759049,15.6895135 L172.45895,41.6815135 L169.08635,41.6815135 L166.040806,34.4542703 L158.259263,34.4542703 L159.097843,32.0484324 L165.022079,32.0484324 L160.628094,21.6415135 L152.218364,41.6815135 Z" id="Shape" fill="#CCCCCC"></path>
                    <path d="M175.668354,41.6808649 L175.668354,18.7183784 L185.707049,18.7183784 C190.183796,18.7183784 192.421338,20.555027 192.421338,24.2257297 C192.421338,27.2134054 190.233984,29.4243243 185.85562,30.8571892 L193.935302,41.6808649 L189.919891,41.6808649 L182.433496,31.3563243 L182.433496,29.4149189 C186.930518,28.7172973 189.179029,27.0314595 189.179029,24.3561081 C189.179029,22.2372973 187.928637,21.1757838 185.428852,21.1757838 L178.712901,21.1757838 L178.712901,41.6818378 L175.668686,41.6818378 L175.668354,41.6808649 L175.668354,41.6808649 Z" id="Shape" fill="#CCCCCC"></path>
                    <path d="M205.340055,18.7183784 L205.340055,35.0656216 C205.340055,39.4757838 202.6794,41.6805405 197.357426,41.6805405 L197.357426,39.2724324 C200.649259,39.2724324 202.295508,37.8684324 202.295508,35.0652973 L202.295508,18.7183784 L205.340055,18.7183784 L205.340055,18.7183784 Z" id="Shape" fill="#CCCCCC"></path>
                    <path d="M210.770715,40.8778378 L210.770715,38.1476757 C213.239922,39.0038919 215.904898,39.4336216 218.768633,39.4336216 C222.81695,39.4336216 224.841773,37.9881081 224.841773,35.0954595 C224.841773,32.6370811 223.348416,31.403027 220.364694,31.403027 L217.335768,31.403027 C212.410981,31.403027 209.946095,29.316973 209.946095,25.1416216 C209.946095,20.7531892 213.101987,18.5565405 219.411777,18.5565405 C222.153531,18.5565405 224.703837,18.8802162 227.063361,19.5217297 L227.063361,22.2515676 C224.703173,21.3943784 222.153531,20.9659459 219.411777,20.9659459 C215.13246,20.9659459 212.993301,22.3582703 212.993301,25.1416216 C212.993301,27.6025946 214.440458,28.8340541 217.335768,28.8340541 L220.364694,28.8340541 C225.376895,28.8340541 227.885655,30.923027 227.885655,35.0954595 C227.885655,39.5931892 224.847091,41.8417297 218.767968,41.8417297 C215.904898,41.8417297 213.239922,41.5193514 210.770715,40.8778378 L210.770715,40.8778378 Z" id="Shape" fill="#CCCCCC"></path>
                    <path d="M59.6827554,40.9307027 L59.6827554,17.9682162 L62.7266374,17.9682162 L77.1257482,36.4663784 L77.1257482,17.9682162 L80.0061022,17.9682162 L80.0061022,40.9307027 L76.9618878,40.9307027 L62.5617799,22.2703784 L62.5617799,40.9307027 L59.6827554,40.9307027 Z" id="Shape" fill="#000000"></path>
                    <path d="M103.373331,40.0313514 C101.47614,40.739027 99.4300446,41.0912432 97.2353784,41.0912432 C88.7116446,41.0912432 84.4489468,37.1043243 84.4489468,29.1285405 C84.4489468,21.5811892 88.5630734,17.8067027 96.791659,17.8067027 C99.1501856,17.8067027 101.345184,18.1290811 103.373331,18.7718919 L103.373331,21.3405405 C101.344852,20.591027 99.2592043,20.2157838 97.120377,20.2157838 C90.7032302,20.2157838 87.494823,23.1875676 87.494823,29.1278919 C87.494823,35.4972973 90.6537065,38.6834595 96.9731353,38.6834595 C97.9815583,38.6834595 99.101659,38.555027 100.331111,38.2965405 L100.331111,30.492973 L103.373663,30.492973 L103.373331,40.0313514 L103.373331,40.0313514 Z" id="Shape" fill="#000000"></path>
                    <path d="M108.227987,32.0662703 L108.227987,17.9669189 L111.270207,17.9669189 L111.270207,32.0659459 C111.270207,36.4761081 113.520047,38.6824865 118.019063,38.6824865 C122.516085,38.6824865 124.765925,36.4757838 124.765925,32.0659459 L124.765925,17.9669189 L127.809807,17.9669189 L127.809807,32.0659459 C127.809807,38.0841081 124.546226,41.0902703 118.019063,41.0902703 C111.491568,41.0902703 108.227987,38.0847568 108.227987,32.0662703 L108.227987,32.0662703 Z" id="Shape" fill="#000000"></path>
                    <path d="M136.284682,17.9669189 L136.284682,38.5216216 L148.594822,38.5216216 L148.594822,40.9294054 L133.242129,40.9294054 L133.242129,17.9669189 L136.284682,17.9669189 Z" id="Shape" fill="#000000"></path>
                    <path d="M152.988475,40.9303784 L149.829259,40.9303784 L161.529492,14.9370811 L173.229393,40.9303784 L169.854799,40.9303784 L166.810917,33.7037838 L159.027712,33.7037838 L159.868286,31.296 L165.79086,31.296 L161.398204,20.8890811 L152.988475,40.9303784 Z" id="Shape" fill="#000000"></path>
                    <path d="M176.438465,40.9307027 L176.438465,17.9682162 L186.476827,17.9682162 C190.953906,17.9682162 193.189455,19.8035676 193.189455,23.4758919 C193.189455,26.4619459 191.00343,28.6741622 186.625399,30.1067027 L194.705413,40.9307027 L190.68834,40.9307027 L183.202942,30.6058378 L183.202942,28.6624865 C187.700296,27.9648649 189.949804,26.2806486 189.949804,23.6036757 C189.949804,21.4848649 188.698083,20.424973 186.196636,20.424973 L179.482679,20.424973 L179.482679,40.9307027 C179.482679,40.9307027 176.438465,40.9307027 176.438465,40.9307027 L176.438465,40.9307027 Z" id="Shape" fill="#000000"></path>
                    <path d="M206.110165,17.9669189 L206.110165,34.3144865 C206.110165,38.7259459 203.449511,40.9294054 198.127869,40.9294054 L198.127869,38.5216216 C201.41937,38.5216216 203.065619,37.1172973 203.065619,34.3141622 L203.065619,17.9669189 L206.110165,17.9669189 L206.110165,17.9669189 Z" id="Shape" fill="#333333"></path>
                    <path d="M211.539496,40.1263784 L211.539496,37.3968649 C214.009036,38.2527568 216.673679,38.6828108 219.537747,38.6828108 C223.585731,38.6828108 225.610554,37.2366486 225.610554,34.3456216 C225.610554,31.8859459 224.117529,30.6531892 221.133475,30.6531892 L218.10455,30.6531892 C213.179763,30.6531892 210.715209,28.5658378 210.715209,24.3901622 C210.715209,20.0017297 213.869771,17.8054054 220.180558,17.8054054 C222.922312,17.8054054 225.472951,18.1290811 227.832475,18.7705946 L227.832475,21.5007568 C225.471954,20.6432432 222.922312,20.2148108 220.180558,20.2148108 C215.901242,20.2148108 213.762082,21.6071351 213.762082,24.3904865 C213.762082,26.8514595 215.208242,28.0829189 218.10455,28.0829189 L221.133475,28.0829189 C226.145344,28.0829189 228.654436,30.1709189 228.654436,34.3456216 C228.654436,38.8423784 225.616204,41.0905946 219.537082,41.0905946 C216.674012,41.0902703 214.008704,40.7678919 211.539496,40.1263784 L211.539496,40.1263784 Z" id="Shape" fill="#333333"></path>
                    <path d="M183.42098,53.1872432 L182.303206,49.871027 L181.508499,49.871027 L183.051047,54.0612973 C183.015151,54.1524324 182.956321,54.2912432 182.876551,54.4787027 C182.796117,54.6661622 182.748919,54.7692973 182.736622,54.7897297 C182.695075,54.8507027 182.643889,54.9019459 182.5824,54.9437838 C182.521243,54.9856216 182.426184,55.0063784 182.297223,55.0063784 C182.255676,55.0063784 182.20715,55.0021622 182.15264,54.995027 C182.098463,54.9875676 182.010052,54.9671351 181.888403,54.9340541 L181.888403,55.5577297 C181.966178,55.5781622 182.032321,55.5914595 182.084836,55.5995676 C182.138016,55.6067027 182.214462,55.6105946 182.313177,55.6105946 C182.718009,55.6105946 183.003186,55.4967568 183.16904,55.2687568 C183.335227,55.0407568 183.620072,54.408 184.025236,53.3698378 C184.196741,52.9290811 184.409128,52.3582703 184.664059,51.659027 C185.003745,50.7285405 185.223777,50.1327568 185.321827,49.8713514 L184.546731,49.8713514 L183.42098,53.1872432 L183.42098,53.1872432 Z M179.270624,53.4664865 C178.765083,53.4664865 178.419747,53.2427027 178.234947,52.7938378 C178.135899,52.5561081 178.08704,52.2457297 178.08704,51.863027 C178.08704,51.3337297 178.207027,50.9536216 178.448663,50.7223784 C178.689635,50.4924324 178.970158,50.376973 179.290567,50.376973 C179.657508,50.376973 179.935705,50.5180541 180.125158,50.7989189 C180.314279,51.0801081 180.408673,51.4349189 180.408673,51.863027 C180.408673,52.3446486 180.314612,52.7322162 180.125158,53.0260541 C179.935705,53.3195676 179.65086,53.4664865 179.270624,53.4664865 L179.270624,53.4664865 Z M177.443564,53.9416216 L178.090032,53.9416216 L178.090032,53.4214054 C178.238271,53.616973 178.377868,53.7587027 178.508491,53.8472432 C178.727193,53.9967568 178.995751,54.0713514 179.313833,54.0713514 C179.882193,54.0713514 180.326577,53.8585946 180.64765,53.4324324 C180.968391,53.0065946 181.128263,52.4724324 181.128263,51.828973 C181.128263,51.1498378 180.966397,50.6361081 180.641335,50.2877838 C180.316606,49.9394595 179.893826,49.7652973 179.372996,49.7652973 C179.122386,49.7652973 178.890721,49.8165405 178.67634,49.9193514 C178.462623,50.0218378 178.279485,50.1707027 178.125263,50.3659459 L178.125263,48.3402162 L177.443564,48.3402162 L177.443564,53.9416216 L177.443564,53.9416216 Z" id="Shape" fill="#333333"></path>
                    <path d="M27.6678173,0.283783784 L0.184135252,9.72162162 L4.52726763,44.8576216 L27.6970662,57.2837838 L50.9861871,44.6892973 L55.3276576,9.55459459 L27.6678173,0.283783784 Z" id="Shape" fill="#B3B3B3"></path>
                    <path d="M51.586236,11.5851892 L26.6036691,3.27210811 L26.6036691,54.3149189 L47.540246,43.0083243 L51.586236,11.5851892 Z" id="Shape" fill="#333333"></path>
                    <path d="M3.26823453,11.735027 L6.98982734,43.1584865 L27.6033367,54.3149189 L27.6033367,3.27113514 L3.26823453,11.735027 Z" id="Shape" fill="#333333"></path>
                    <path d="M34.4804892,30.4446486 L27.6036691,33.5824865 L20.3555871,33.5824865 L16.9484201,41.8981622 L10.6110432,42.0126486 L27.6036691,5.12562162 L34.4804892,30.4446486 L34.4804892,30.4446486 Z M33.815741,28.8648649 L27.6492043,16.9527568 L22.5911353,28.6598919 L27.6033367,28.6598919 L33.815741,28.8648649 L33.815741,28.8648649 Z" id="Shape" fill="#FFFFFF"></path>
                    <path d="M27.6033367,5.12562162 L27.6488719,16.9527568 L33.3883079,28.668973 L27.6162993,28.668973 L27.6033367,33.575027 L35.584636,33.5824865 L39.3148705,42.0139459 L45.3787036,42.1235676 L27.6033367,5.12562162 Z" id="Shape" fill="#EFEFEF"></path>
                    <path d="M217.098121,48.2724324 C217.401246,48.5172973 218.034419,49.0316757 218.034419,50.0108108 C218.034419,50.9633514 217.480351,51.4144865 216.925951,51.839027 C216.754446,52.0060541 216.556683,52.1867027 216.556683,52.4701622 C216.556683,52.752973 216.754446,52.9076757 216.899361,53.0237838 L217.374988,53.3834595 C217.955314,53.8598919 218.482791,54.2980541 218.482791,55.1867027 C218.482791,56.3967568 217.281924,57.6197838 215.012806,57.6197838 C213.099328,57.6197838 212.175993,56.7317838 212.175993,55.7782703 C212.175993,55.3144865 212.412976,54.6587027 213.192393,54.2075676 C214.009701,53.7184865 215.118501,53.6545946 215.712121,53.615027 C215.526988,53.3834595 215.315931,53.1389189 215.315931,52.74 C215.315931,52.5214054 215.382406,52.3923243 215.448216,52.2376216 C215.302636,52.2505946 215.158053,52.2632432 215.025768,52.2632432 C213.627471,52.2632432 212.835755,51.2458378 212.835755,50.2420541 C212.835755,49.6498378 213.113288,48.9927568 213.679986,48.5166486 C214.432481,47.9114595 215.329226,47.8083243 216.042168,47.8083243 L218.759991,47.8083243 L217.915429,48.2717838 L217.098121,48.2717838 L217.098121,48.2724324 Z M216.160494,53.9892973 C216.055131,53.976 215.989321,53.976 215.857701,53.976 C215.738711,53.976 215.025768,54.0019459 214.471701,54.1822703 C214.181538,54.2854054 213.336976,54.5938378 213.336976,55.5081081 C213.336976,56.4223784 214.247681,57.0794595 215.659606,57.0794595 C216.925951,57.0794595 217.599341,56.4859459 217.599341,55.6890811 C217.599673,55.031027 217.164263,54.6846486 216.160494,53.9892973 L216.160494,53.9892973 Z M216.543388,51.5425946 C216.846846,51.2458378 216.873104,50.8345946 216.873104,50.6027027 C216.873104,49.6754595 216.305741,48.2335135 215.210901,48.2335135 C214.867558,48.2335135 214.498291,48.4008649 214.286568,48.6587027 C214.062548,48.9291892 213.996738,49.2762162 213.996738,49.6115676 C213.996738,50.4739459 214.511586,51.9032432 215.646643,51.9032432 C215.976358,51.9032432 216.331666,51.7488649 216.543388,51.5425946 L216.543388,51.5425946 Z M208.791095,53.783027 C206.696806,53.783027 205.577037,52.1892973 205.577037,50.748973 C205.577037,49.0650811 206.986636,47.6257297 208.989522,47.6257297 C210.925601,47.6257297 212.13777,49.1036757 212.13777,50.6594595 C212.137437,52.176 210.938896,53.783027 208.791095,53.783027 L208.791095,53.783027 Z M210.437344,52.7419459 C210.754429,52.3303784 210.833534,51.8166486 210.833534,51.3145946 C210.833534,50.1836757 210.280131,48.024 208.64618,48.024 C208.211435,48.024 207.776689,48.1913514 207.460934,48.4618378 C206.947083,48.9113514 206.854351,49.476973 206.854351,50.0299459 C206.854351,51.3022703 207.500154,53.3970811 209.09422,53.3970811 C209.608071,53.3970811 210.135216,53.1531892 210.437344,52.7419459 L210.437344,52.7419459 Z M201.650702,53.783027 C199.556081,53.783027 198.436312,52.1892973 198.436312,50.748973 C198.436312,49.0650811 199.846243,47.6257297 201.848797,47.6257297 C203.784876,47.6257297 204.997045,49.1036757 204.997045,50.6594595 C204.997045,52.176 203.798171,53.783027 201.650702,53.783027 L201.650702,53.783027 Z M203.297283,52.7419459 C203.613704,52.3303784 203.692809,51.8166486 203.692809,51.3145946 C203.692809,50.1836757 203.139406,48.024 201.505787,48.024 C201.071374,48.024 200.636296,48.1913514 200.320209,48.4618378 C199.806358,48.9113514 199.714291,49.476973 199.714291,50.0299459 C199.714291,51.3022703 200.359429,53.3970811 201.953827,53.3970811 C202.46801,53.3970811 202.995155,53.1531892 203.297283,52.7419459 L203.297283,52.7419459 Z M197.429883,53.5816216 L197.429883,52.0047568 C197.429883,51.8756757 197.442514,51.5007568 197.456141,51.3843243 C197.482731,51.2818378 197.495361,51.2549189 197.588758,51.1777297 L197.932765,50.855027 L195.124869,50.855027 L194.065925,51.4105946 L196.065488,51.3074595 L196.065488,53.3876757 C195.668301,53.5433514 195.231561,53.7107027 194.383342,53.7107027 C191.496341,53.7107027 189.694873,51.4232432 189.694873,48.9943784 C189.694873,46.7328649 191.271324,45.1812973 193.363619,45.1812973 C194.926109,45.1812973 195.747738,45.9697297 196.197773,46.3955676 L195.866728,46.9131892 L196.330058,46.8100541 L197.429551,45.7890811 C197.138059,45.5951351 196.674729,45.2591351 195.680931,44.9876757 C195.058727,44.8193514 194.37038,44.7165405 193.655111,44.7165405 C190.277525,44.7165405 188.30422,47.0422703 188.30422,49.548973 C188.30422,51.6042162 189.694541,54.2276757 193.350324,54.2276757 C194.078555,54.2276757 194.766902,54.1245405 195.535351,54.0081081 L197.429883,53.5816216 L197.429883,53.5816216 Z M221.284373,53.2096216 C220.846636,53.1707027 220.755233,53.0931892 220.755233,52.5895135 L220.755233,45.2743784 C220.75756,45.2464865 220.759886,45.2179459 220.762878,45.191027 C220.815725,44.7389189 220.948342,44.6614054 221.358824,44.4285405 L219.464624,44.4285405 L218.471158,44.8939459 L219.483902,44.8939459 L219.483902,44.8997838 L219.482905,44.8952432 L219.482905,52.8736216 C219.482905,53.1321081 219.43039,53.1707027 219.125603,53.5579459 L221.469837,53.5579459 L221.960089,53.2741622 C221.735072,53.2482162 221.509722,53.2352432 221.284373,53.2096216 L221.284373,53.2096216 Z M226.673486,53.3286486 C226.529236,53.4055135 226.384321,53.4956757 226.240071,53.5598919 C225.805325,53.7522162 225.35795,53.8034595 224.963422,53.8034595 C224.542968,53.8034595 223.8852,53.7775135 223.213804,53.303027 C222.28083,52.6611892 221.872342,51.5575135 221.872342,50.5945946 C221.872342,48.6055135 223.529892,47.6302703 224.884317,47.6302703 C225.357617,47.6302703 225.84521,47.7457297 226.239738,47.9899459 C226.896842,48.4128649 227.067682,48.9645405 227.15975,49.2596757 L224.069335,50.4791351 L223.055927,50.5563243 C223.384312,52.1863784 224.516378,53.136 225.76544,53.136 C226.436504,53.136 226.923099,52.9050811 227.370142,52.6871351 L226.673486,53.3286486 L226.673486,53.3286486 Z M225.437387,49.5032432 C225.687,49.4134054 225.81862,49.3365405 225.81862,49.1568649 C225.81862,48.6441081 225.226994,48.0528649 224.516711,48.0528649 C223.989898,48.0528649 223.004076,48.4508108 223.004076,49.836973 C223.004076,50.0552432 223.030334,50.2861622 223.043629,50.5174054 L225.437387,49.5032432 L225.437387,49.5032432 Z" id="Shape" fill="#333333"></path>
                </g>
            </g>
        </g>
    </g>
</svg>