<?xml version="1.0" encoding="UTF-8" standalone="no"?>
<svg width="171px" height="60px" viewBox="0 0 171 60" version="1.1" xmlns="http://www.w3.org/2000/svg" xmlns:xlink="http://www.w3.org/1999/xlink" xmlns:sketch="http://www.bohemiancoding.com/sketch/ns">
    <!-- Generator: Sketch 3.2.1 (9977) - http://www.bohemiancoding.com/sketch -->
    <title>ionic-logo</title>
    <desc>Created with Sketch.</desc>
    <defs></defs>
    <g id="Page-1" stroke="none" stroke-width="1" fill="none" fill-rule="evenodd" sketch:type="MSPage">
        <g id="Desktop" sketch:type="MSArtboardGroup" transform="translate(-75.000000, -2503.000000)" fill="#000000">
            <g id="ionic-logo" sketch:type="MSLayerGroup" transform="translate(75.000000, 2503.000000)">
                <g id="Group" sketch:type="MSShapeGroup">
                    <rect id="Rectangle-path" x="76.2641351" y="22.653918" width="1.22969768" height="23.169338"></rect>
                    <path d="M94.9660381,22.0853044 C87.9853807,22.0853044 82.7185434,27.3316634 82.7185434,34.2385869 C82.7185434,41.1894549 87.9853807,46.3915366 94.9660381,46.3915366 C101.947364,46.3915366 107.215873,41.1894549 107.215873,34.2385869 C107.215204,27.3316634 101.94703,22.0853044 94.9660381,22.0853044 L94.9660381,22.0853044 Z M94.9660381,45.2549753 C88.6884949,45.2549753 83.9472381,40.5336184 83.9472381,34.2385869 C83.9472381,27.9432226 88.6881606,23.2225315 94.9660381,23.2225315 C101.24425,23.2225315 105.987179,27.9432226 105.987179,34.2385869 C105.98651,40.5336184 101.244584,45.2549753 94.9660381,45.2549753 L94.9660381,45.2549753 Z" id="Shape"></path>
                    <path d="M130.439707,24.4023714 C127.805452,22.2600832 124.644949,22.0853044 123.020397,22.0853044 C119.332976,22.0853044 115.249029,23.7908122 113.801677,27.1129402 L113.712408,27.1129402 L113.712408,22.653918 L112.483045,22.653918 L112.483045,45.8232559 L113.712408,45.8232559 L113.712408,32.4898006 C113.712408,26.6758269 117.31357,23.2225315 123.152127,23.2225315 C126.664354,23.2225315 128.550693,24.3590928 129.736593,25.4077654 C131.492874,26.9817729 132.590508,29.5608416 132.590508,33.5817517 L132.590508,45.8232559 L133.82054,45.8232559 L133.82054,33.5817517 C133.82054,29.4296743 132.722906,26.3256035 130.439707,24.4023714 L130.439707,24.4023714 Z" id="Shape"></path>
                    <rect id="Rectangle-path" x="140.625335" y="22.653918" width="1.22936334" height="23.169338"></rect>
                    <path d="M159.327572,45.2549753 C153.400082,45.2549753 148.307435,40.7952872 148.307435,34.2385869 C148.307435,31.0912377 149.624061,28.0311113 151.51274,26.3252706 C153.927,24.1836482 156.0778,23.2225315 159.371371,23.2225315 C163.936431,23.2225315 167.975911,25.7573229 169.55633,30.1724008 L170.917757,30.1724008 C169.073545,24.7083174 164.068829,22.0853044 159.327572,22.0853044 C152.258315,22.0853044 147.077403,27.4185534 147.077403,34.2825313 C147.077403,41.4957339 152.565238,46.3915366 159.327572,46.3915366 C164.85954,46.3915366 169.249407,43.2441873 170.87329,38.5228304 L169.5132,38.5228304 C168.371768,41.9764587 164.595747,45.2549753 159.327572,45.2549753 L159.327572,45.2549753 Z" id="Shape"></path>
                    <ellipse id="Oval" cx="76.8793183" cy="15.4720091" rx="1.32699024" ry="1.32132741"></ellipse>
                    <ellipse id="Oval" cx="141.239515" cy="15.4720091" rx="1.32699024" ry="1.32132741"></ellipse>
                    <ellipse id="Oval" cx="30.2029631" cy="30.2712756" rx="12.1385003" ry="12.0867002"></ellipse>
                    <path d="M54.9744506,9.7622368 C54.9744506,7.4664762 53.1048287,5.6061644 50.7998978,5.6061644 C49.7537521,5.6061644 48.8008868,5.9916764 48.0680164,6.62487487 C43.0907164,2.88693984 36.9024417,0.668081896 30.2026288,0.668081896 C13.8093344,0.668081896 0.472564263,13.9482713 0.472564263,30.2716085 C0.472564263,46.5946128 13.8096687,59.8751351 30.2029631,59.8751351 C46.5962575,59.8751351 59.9330277,46.5946128 59.9330277,30.2716085 C59.9330277,23.6003866 57.7046603,17.4385198 53.9510399,12.4821272 C54.5869521,11.7530501 54.9744506,10.8035853 54.9744506,9.7622368 L54.9744506,9.7622368 Z M30.2026288,58.8790627 C14.3609932,58.8790627 1.47223693,46.0453082 1.47223693,30.2712756 C1.47223693,14.497243 14.3609932,1.66348854 30.2026288,1.66348854 C36.6439979,1.66348854 42.5962295,3.78546911 47.393321,7.36393933 C46.9112046,8.041748 46.625345,8.86803539 46.625345,9.76190389 C46.625345,12.0573316 48.4942983,13.9176434 50.7992291,13.9176434 C51.6972629,13.9176434 52.5260885,13.6330037 53.2071364,13.1529447 C56.8009429,17.9295649 58.9320177,23.8563958 58.9320177,30.2709427 C58.9326863,46.0453082 46.0445987,58.8790627 30.2026288,58.8790627 L30.2026288,58.8790627 Z" id="Shape"></path>
                </g>
            </g>
        </g>
    </g>
</svg>