<?xml version="1.0" encoding="UTF-8" standalone="no"?>
<svg width="81px" height="60px" viewBox="0 0 81 60" version="1.1" xmlns="http://www.w3.org/2000/svg" xmlns:xlink="http://www.w3.org/1999/xlink" xmlns:sketch="http://www.bohemiancoding.com/sketch/ns">
    <!-- Generator: Sketch 3.2.1 (9977) - http://www.bohemiancoding.com/sketch -->
    <title>sass-logo</title>
    <desc>Created with Sketch.</desc>
    <defs></defs>
    <g id="Page-1" stroke="none" stroke-width="1" fill="none" fill-rule="evenodd" sketch:type="MSPage">
        <g id="Desktop" sketch:type="MSArtboardGroup" transform="translate(-78.000000, -2599.000000)" fill="#333333">
            <g id="Tools-Logos" sketch:type="MSLayerGroup" transform="translate(78.000000, 2599.000000)">
                <path d="M57.2727564,45.3404927 C57.0157548,45.1597307 57.0584898,44.5755055 57.9037263,42.7559026 C58.2355511,42.0414761 58.9926559,40.8386853 60.3088647,39.6892317 C60.4613208,40.1619602 60.5543323,40.6152535 60.5516706,41.0372751 C60.5346653,43.8526035 58.5020165,44.9040043 57.2727564,45.3404927 L57.2727564,45.3404927 Z M46.4532564,47.7777844 C46.1087146,47.9559161 45.7928599,48.0678512 45.646023,47.9814887 C45.5383722,47.9179224 45.788128,47.6833848 45.788128,47.6833848 C45.788128,47.6833848 47.5449955,45.8158515 48.2368887,44.9653786 C48.6393963,44.4708768 49.1060804,43.8838752 49.6146123,43.2273159 C49.6187527,43.292928 49.6209708,43.3579556 49.6209708,43.4222525 C49.6157953,45.6597853 47.4286202,47.1704707 46.4532564,47.7777844 L46.4532564,47.7777844 Z M32.4086676,41.1554938 C31.5959629,43.1134811 29.8949911,48.1226497 28.8597391,47.85421 C27.9710282,47.623764 27.4298166,43.815925 28.6822926,40.0684374 C29.3126711,38.1820534 30.6593416,35.928008 31.4504569,35.0531315 C32.7240786,33.6453212 34.126349,33.1848675 34.4670461,33.7556488 C34.9013462,34.4829347 32.9182346,39.9281532 32.4086676,41.1554938 L32.4086676,41.1554938 Z M15.4093,52.575796 C13.0758796,55.091413 9.81589299,56.0421307 8.4179109,55.2413417 C6.90843331,54.376402 7.50627989,50.6728994 10.3698216,48.0034081 C12.115155,46.3765499 14.368281,44.8781394 15.8629714,43.9551863 C16.2030771,43.7529433 16.7028845,43.4558623 17.3101949,43.0962379 C17.4108957,43.0395397 17.4676786,43.0081219 17.4676786,43.0081219 L17.4654605,43.0043225 C17.582723,42.9350572 17.7027951,42.8638922 17.8268597,42.7906814 C18.868766,46.5903371 17.8585043,49.9355306 15.4093,52.575796 L15.4093,52.575796 Z M69.7093848,34.4852727 C66.878375,34.5000318 64.4263611,35.1716424 62.3709401,36.1727747 C61.6191587,34.6901461 60.8583572,33.3857954 60.7305957,32.4159348 C60.5813929,31.2837245 60.4085305,30.6083145 60.5886386,29.2595405 C60.7688946,27.9107665 61.5585312,26.0008556 61.5469972,25.857795 C61.5354631,25.7147343 61.3698465,25.0276341 59.7370436,25.0159437 C58.1040929,25.0043995 56.7072938,25.3263225 56.543008,25.7524357 C56.3785743,26.1785489 56.0641984,27.1374498 55.8685637,28.137267 C55.5825792,29.6004603 52.6084292,34.81874 50.9197308,37.5487288 C50.3674288,36.4832996 49.8977872,35.5438339 49.7998959,34.8009122 C49.6508409,33.6687019 49.4778307,32.9932919 49.6579388,31.6443717 C49.8381948,30.2957438 50.6278314,28.3855408 50.6162974,28.2424801 C50.6047634,28.0994195 50.4392946,27.4124653 48.8063438,27.400775 C47.1733931,27.3892307 45.776594,27.7111537 45.6123082,28.137267 C45.4478745,28.5633802 45.2723504,29.5589596 44.9378639,30.5220982 C44.6033774,31.485383 40.649871,40.1901632 39.6144711,42.4464006 C39.0868638,43.5960003 38.6277212,44.5195379 38.3035857,45.1503784 C38.3026984,45.148771 38.3015155,45.1468713 38.3015155,45.1468713 C38.3015155,45.1468713 38.2815528,45.1888104 38.2470986,45.2596831 C37.9696907,45.7965624 37.8045176,46.0936434 37.8045176,46.0936434 C37.8045176,46.0936434 37.8062921,46.0977351 37.8093974,46.1047493 C37.5893638,46.4990063 37.3535079,46.8652065 37.2366891,46.8652065 C37.1550637,46.8652065 36.9916651,45.8157054 37.2723262,44.3751621 C37.8605611,41.3555449 39.273774,36.6463799 39.2597262,36.4841763 C39.2523326,36.4010287 39.5223469,35.5805123 38.3368569,35.1514765 C37.1844902,34.7347156 36.7741454,35.429853 36.6690084,35.4320449 C36.5671245,35.4342368 36.4914141,35.6776884 36.4914141,35.6776884 C36.4914141,35.6776884 37.775239,30.3819602 34.0426534,30.3819602 C31.709085,30.3819602 28.4755676,32.9045914 26.8826901,35.1912237 C25.8774562,35.7330714 23.7263619,36.8934847 21.4441051,38.1326617 C20.5675198,38.6084589 19.6730419,39.0949236 18.824848,39.5566924 C18.7671779,39.4935645 18.7096557,39.4302905 18.650359,39.3677471 C14.1244401,34.5958927 5.75769325,31.2207427 6.1125861,24.8055174 C6.24167837,22.4732928 7.06207234,16.3323523 22.1893801,8.88326173 C34.5810554,2.78119168 44.5011978,4.46036422 46.215626,8.18184078 C48.6646824,13.4984655 40.9138226,23.3800255 28.0449642,24.8055174 C23.1418238,25.3486803 20.5601262,23.4709179 19.917918,22.7713967 C19.241995,22.0351969 19.1411462,22.0020255 18.8887287,22.1401178 C18.4776445,22.3653032 18.738195,23.0152866 18.8887287,23.4026755 C19.2730481,24.3909484 20.8496596,26.1433318 23.537825,27.0149934 C25.9025944,27.7818804 31.6592522,28.2031713 38.6207712,25.5420094 C46.4180628,22.5615549 52.5065454,14.2704669 50.7181812,7.34013563 C48.8995032,0.291585674 37.0731426,-2.02558768 25.8802657,1.90412323 C19.2187791,4.24277759 12.0075042,7.91340113 6.82251967,12.7060059 C0.657439374,18.4046128 -0.325613821,23.3643896 0.079407644,25.4367963 C1.5187939,32.8004012 11.7892451,37.5956363 15.9020096,41.1495025 C15.6989813,41.2601224 15.50867,41.3640204 15.3355119,41.45842 C13.2735845,42.4664203 5.44464818,46.5152267 3.48637901,50.7931638 C1.26519338,55.6456817 3.84008888,59.1272138 5.54475754,59.5959968 C10.8265982,61.0483766 16.2465514,58.4360219 19.1593345,54.142595 C22.0715261,49.850191 21.7158939,44.2610351 20.3792787,41.7097625 C20.362717,41.6780524 20.3443809,41.647073 20.3273756,41.6156552 C20.8597149,41.3042535 21.4027009,40.9875911 21.9408072,40.6753127 C22.9902549,40.0663916 24.0203314,39.4982406 24.9143657,39.017475 C24.4142625,40.3719481 24.0478356,41.9954454 23.8572286,44.340091 C23.6333504,47.0946296 24.7756617,50.6550716 26.2705,52.0558677 C26.9286783,52.6725336 27.720533,52.6870004 28.2224107,52.6870004 C29.9618292,52.6870004 30.7556062,51.2569784 31.629382,49.5656772 C32.7013063,47.4913708 33.6522713,45.076583 33.6522713,45.076583 C33.6522713,45.076583 32.4586483,51.5997979 35.7107977,51.5997979 C36.8956962,51.5997979 38.0876925,50.0813677 38.6185531,49.3071743 C38.6200318,49.3156498 38.6207712,49.3201798 38.6207712,49.3201798 C38.6207712,49.3201798 38.6516764,49.2697652 38.7120082,49.1686437 C38.8350377,48.9827671 38.9046854,48.8644023 38.9046854,48.8644023 C38.9046854,48.8644023 38.9070514,48.8521275 38.9108961,48.8307926 C39.3871919,48.013491 40.4435896,46.1501955 42.0278904,43.0775333 C44.0747349,39.1076368 46.0380317,34.1344161 46.0380317,34.1344161 C46.0380317,34.1344161 46.2206537,35.3503586 46.818796,37.3609525 C47.1707314,38.5440159 47.9183724,39.8517276 48.5082338,41.1058098 C48.0334168,41.7568161 47.7415174,42.1307612 47.7415174,42.1307612 C47.7415174,42.1307612 47.744327,42.1376292 47.7495025,42.1501964 C47.3700629,42.647913 46.9446351,43.1850845 46.4995403,43.7088122 C44.8840385,45.6102475 42.9597799,47.7815837 42.7020389,48.4083326 C42.3986056,49.1467243 42.4703235,49.6898871 43.0569318,50.1268139 C43.4854649,50.4459605 44.2483367,50.4954983 45.0443318,50.4424534 C46.4961393,50.346008 47.5176392,49.990183 48.021587,49.7734731 C48.8072311,49.498896 49.7221153,49.0670838 50.5808081,48.4434036 C52.1655525,47.2920504 53.1213973,45.6450263 53.0295688,43.4633149 C52.9787008,42.2609624 52.5906846,41.0692775 52.0998974,39.9442275 C52.2437768,39.7399386 52.3879521,39.5337501 52.5325709,39.3249312 C55.0308687,35.715682 56.9687315,31.7495849 56.9687315,31.7495849 C56.9687315,31.7495849 57.1513535,32.9653812 57.7496437,34.9761213 C58.0523377,35.9939123 58.6495928,37.1040571 59.186664,38.1930131 C56.837569,40.079251 55.3807339,42.2708992 54.8748637,43.7088122 C53.9395732,46.3679283 54.6721312,47.572911 56.046158,47.8471958 C56.6685513,47.9715519 57.5475026,47.6896684 58.2087863,47.4130455 C59.0315462,47.1434368 60.0202185,46.6943813 60.9436793,46.0236475 C62.5284238,44.8722942 64.0520971,43.2600489 63.9602685,41.0784836 C63.9182729,40.0852423 63.6457447,39.0994536 63.2759168,38.1523892 C65.2671615,37.3327496 67.8453101,36.8769721 71.1291041,37.2558855 C78.1737272,38.0688032 79.5557391,42.4155673 79.2916397,44.2348779 C79.0273924,46.0543346 77.5497073,47.0542979 77.0556668,47.3563473 C76.5617743,47.6582506 76.4109448,47.7630253 76.4524969,47.9876261 C76.5125329,48.3140791 76.7409952,48.301512 77.1621347,48.2313699 C77.7420888,48.1346323 80.861449,46.7515178 80.9949775,43.3933189 C81.1645867,39.1298485 77.0311201,34.4466946 69.7093848,34.4852727 L69.7093848,34.4852727 Z" id="sass-logo" sketch:type="MSShapeGroup"></path>
            </g>
        </g>
    </g>
</svg>