<?xml version="1.0" encoding="UTF-8" standalone="no"?>
<svg width="264px" height="60px" viewBox="0 0 264 60" version="1.1" xmlns="http://www.w3.org/2000/svg" xmlns:xlink="http://www.w3.org/1999/xlink" xmlns:sketch="http://www.bohemiancoding.com/sketch/ns">
    <!-- Generator: Sketch 3.2.1 (9977) - http://www.bohemiancoding.com/sketch -->
    <title>wordpress-logo</title>
    <desc>Created with Sketch.</desc>
    <defs></defs>
    <g id="Page-1" stroke="none" stroke-width="1" fill="none" fill-rule="evenodd" sketch:type="MSPage">
        <g id="Desktop" sketch:type="MSArtboardGroup" transform="translate(-681.000000, -2599.000000)">
            <g id="Tools-Logos" sketch:type="MSLayerGroup" transform="translate(78.000000, 2599.000000)">
                <g id="wordpress-logo" transform="translate(603.000000, 0.000000)">
                    <g id="Layer_1"></g>
                    <g id="Layer_2" sketch:type="MSShapeGroup">
                        <g id="Group">
                            <path d="M152.832089,23.5253659 L142.458987,23.5253659 L142.458987,24.6253659 C145.703601,24.6253659 146.225257,25.3204878 146.225257,29.4336585 L146.225257,36.8487805 C146.225257,40.9614634 145.704089,41.7146341 142.458987,41.7146341 C139.967823,41.3673171 138.286713,40.0346341 135.968784,37.4858537 L133.303409,34.5897561 C136.895956,33.9517073 138.807882,31.6931707 138.807882,29.1439024 C138.807882,25.9585366 136.084924,23.5253659 130.984991,23.5253659 L120.7861,23.5253659 L120.7861,24.6253659 C124.030713,24.6253659 124.55237,25.3204878 124.55237,29.4336585 L124.55237,36.8487805 C124.55237,40.9614634 124.030713,41.7146341 120.7861,41.7146341 L120.7861,42.815122 L132.317678,42.815122 L132.317678,41.7146341 C129.073065,41.7146341 128.551409,40.9614634 128.551409,36.8487805 L128.551409,34.7639024 L129.536163,34.7639024 L135.968784,42.815122 L152.832089,42.815122 C161.118566,42.815122 164.711601,38.4131707 164.711601,33.1409756 C164.711601,27.8697561 161.119054,23.5253659 152.832089,23.5253659 L152.832089,23.5253659 Z M128.551896,32.9668293 L128.551896,25.2634146 L130.927409,25.2634146 C133.534713,25.2634146 134.694166,27.0590244 134.694166,29.1443902 C134.694166,31.1721951 133.534713,32.9673171 130.927409,32.9673171 L128.551896,32.9673171 L128.551896,32.9668293 Z M153.006299,41.0195122 L152.600296,41.0195122 C150.514647,41.0195122 150.224784,40.4985366 150.224784,37.8336585 L150.224784,25.2634146 L153.006299,25.2634146 C159.032917,25.2634146 160.133323,29.6653659 160.133323,33.0834146 C160.133323,36.6165854 159.032429,41.0195122 153.006299,41.0195122 L153.006299,41.0195122 Z" id="Shape" fill="#555555"></path>
                            <path d="M88.5097819,35.1112195 L92.5083327,23.2931707 C93.6677856,19.8756098 93.1461294,18.8912195 89.4374418,18.8912195 L89.4374418,17.7321951 L100.331712,17.7321951 L100.331712,18.8912195 C96.6810943,18.8912195 95.8119926,19.76 94.3631645,23.9887805 L87.7563327,43.8 L87.0033715,43.8 L81.0919187,25.6682927 L75.0657893,43.8 L74.3123401,43.8 L67.880207,23.9887805 C66.4894492,19.76 65.5622773,18.8912195 62.2010351,18.8912195 L62.2010351,17.7321951 L75.0657893,17.7321951 L75.0657893,18.8912195 C71.6464769,18.8912195 70.718817,19.7019512 71.9363401,23.2931707 L75.8187505,35.1112195 L81.6716451,17.7321951 L82.7730277,17.7321951 L88.5097819,35.1112195 L88.5097819,35.1112195 Z" id="Shape" fill="#555555"></path>
                            <path d="M108.211697,43.5678049 C101.837634,43.5678049 96.6220481,38.8760976 96.6220481,33.1404878 C96.6220481,27.4639024 101.838122,22.7712195 108.211697,22.7712195 C114.586248,22.7712195 119.801346,27.4639024 119.801346,33.1404878 C119.801346,38.8760976 114.586248,43.5678049 108.211697,43.5678049 L108.211697,43.5678049 Z M108.211697,24.5682927 C102.880946,24.5682927 101.026115,29.3756098 101.026115,33.1409756 C101.026115,36.964878 102.880946,41.7146341 108.211697,41.7146341 C113.601494,41.7146341 115.455837,36.964878 115.455837,33.1409756 C115.455837,29.3756098 113.601494,24.5682927 108.211697,24.5682927 L108.211697,24.5682927 Z" id="Shape" fill="#555555"></path>
                            <path d="M179.024207,41.6565854 L179.024207,42.815122 L165.753937,42.815122 L165.753937,41.6565854 C169.636835,41.6565854 170.332214,40.6721951 170.332214,34.8785366 L170.332214,25.6107317 C170.332214,19.8170732 169.636835,18.8907317 165.753937,18.8907317 L165.753937,17.7317073 L177.749102,17.7317073 C183.717649,17.7317073 187.021797,20.8019512 187.021797,24.9156098 C187.021797,28.9126829 183.717649,32.0404878 177.749102,32.0404878 L174.44593,32.0404878 L174.44593,34.8780488 C174.44593,40.6721951 175.141309,41.6565854 179.024207,41.6565854 L179.024207,41.6565854 Z M177.749102,19.8170732 L174.44593,19.8170732 L174.44593,29.8970732 L177.749102,29.8970732 C180.994691,29.8970732 182.501102,27.6380488 182.501102,24.9156098 C182.501102,22.135122 180.994691,19.8170732 177.749102,19.8170732 L177.749102,19.8170732 Z" id="Shape" fill="#333333"></path>
                            <path d="M226.83163,37.3702439 L226.541767,38.4126829 C226.020599,40.3243902 225.382314,41.0195122 221.268111,41.0195122 L220.456591,41.0195122 C217.443771,41.0195122 216.922115,40.3243902 216.922115,36.2117073 L216.922115,33.5473171 C221.442322,33.5473171 221.790255,33.9521951 221.790255,36.964878 L222.89115,36.964878 L222.89115,28.3331707 L221.790255,28.3331707 C221.790255,31.3453659 221.442322,31.7507317 216.922115,31.7507317 L216.922115,25.2634146 L220.108658,25.2634146 C224.223837,25.2634146 224.860658,25.9585366 225.382314,27.8702439 L225.672665,28.9702439 L226.599349,28.9702439 L226.194322,23.5253659 L209.156806,23.5253659 L209.156806,24.6253659 C212.40142,24.6253659 212.923564,25.3204878 212.923564,29.4336585 L212.923564,36.8487805 C212.923564,40.6112195 212.480473,41.5590244 209.921967,41.6941463 C207.490336,41.3229268 205.820939,39.9970732 203.53668,37.4858537 L200.870817,34.5897561 C204.463852,33.9517073 206.376266,31.6931707 206.376266,29.1439024 C206.376266,25.9585366 203.652821,23.5253659 198.553375,23.5253659 L188.354484,23.5253659 L188.354484,24.6253659 C191.599098,24.6253659 192.120754,25.3204878 192.120754,29.4336585 L192.120754,36.8487805 C192.120754,40.9614634 191.599586,41.7146341 188.354484,41.7146341 L188.354484,42.815122 L199.886551,42.815122 L199.886551,41.7146341 C196.641937,41.7146341 196.119793,40.9614634 196.119793,36.8487805 L196.119793,34.7639024 L197.105035,34.7639024 L203.537168,42.815122 L227.353774,42.815122 L227.701708,37.3707317 L226.83163,37.3707317 L226.83163,37.3702439 Z M196.119305,32.9668293 L196.119305,25.2634146 L198.494817,25.2634146 C201.10261,25.2634146 202.262063,27.0590244 202.262063,29.1443902 C202.262063,31.1721951 201.10261,32.9673171 198.494817,32.9673171 L196.119305,32.9673171 L196.119305,32.9668293 Z" id="Shape" fill="#333333"></path>
                            <path d="M238.595002,43.5678049 C236.277072,43.5678049 234.248518,42.3517073 233.379416,41.5980488 C233.089553,41.8882927 232.568384,42.7570732 232.452732,43.5678049 L231.351349,43.5678049 L231.351349,35.5746341 L232.510314,35.5746341 C232.974388,39.397561 235.639275,41.6565854 239.058588,41.6565854 C240.912932,41.6565854 242.41983,40.6141463 242.41983,38.8765854 C242.41983,37.3707317 241.087142,36.2117073 238.711142,35.1112195 L235.40797,33.5473171 C233.089553,32.4458537 231.351349,30.5341463 231.351349,27.9858537 C231.351349,25.2053659 233.959142,22.8307317 237.552177,22.8307317 C239.464591,22.8307317 241.086654,23.5258537 242.072384,24.3365854 C242.36176,24.104878 242.651623,23.4673171 242.825834,22.7717073 L243.926728,22.7717073 L243.926728,29.6078049 L242.709693,29.6078049 C242.303689,26.884878 240.797279,24.6258537 237.726388,24.6258537 C236.103837,24.6258537 234.596451,25.5526829 234.596451,27.0014634 C234.596451,28.5073171 235.813486,29.3180488 238.59549,30.5926829 L241.782033,32.1565854 C244.564037,33.4887805 245.664444,35.6331707 245.664444,37.3707317 C245.664444,41.0195122 242.477412,43.5678049 238.595002,43.5678049 L238.595002,43.5678049 Z" id="Shape" fill="#333333"></path>
                            <path d="M256.443061,43.5678049 C254.124643,43.5678049 252.096089,42.3517073 251.227475,41.5980488 C250.937612,41.8882927 250.416444,42.7570732 250.300791,43.5678049 L249.199409,43.5678049 L249.199409,35.5746341 L250.358373,35.5746341 C250.821959,39.397561 253.487335,41.6565854 256.906647,41.6565854 C258.760991,41.6565854 260.267889,40.6141463 260.267889,38.8765854 C260.267889,37.3707317 258.935201,36.2117073 256.558713,35.1112195 L253.255542,33.5473171 C250.937612,32.4458537 249.198921,30.5341463 249.198921,27.9858537 C249.198921,25.2053659 251.806713,22.8307317 255.399749,22.8307317 C257.312163,22.8307317 258.934226,23.5258537 259.919956,24.3365854 C260.209331,24.104878 260.499194,23.4673171 260.672429,22.7717073 L261.773811,22.7717073 L261.773811,29.6078049 L260.557264,29.6078049 C260.151261,26.884878 258.64485,24.6258537 255.573959,24.6258537 C253.951409,24.6258537 252.444022,25.5526829 252.444022,27.0014634 C252.444022,28.5073171 253.661057,29.3180488 256.443061,30.5926829 L259.629604,32.1565854 C262.411608,33.4887805 263.512015,35.6331707 263.512015,37.3707317 C263.512015,41.0195122 260.324983,43.5678049 256.443061,43.5678049 L256.443061,43.5678049 Z" id="Shape" fill="#333333"></path>
                            <g id="Shape" fill="#333333">
                                <path d="M4.24937523,29.8829268 C4.24937523,40.0302439 10.1486285,48.7995122 18.7030092,52.955122 L6.46970795,19.4497561 C5.04674307,22.6380488 4.24937523,26.1663415 4.24937523,29.8829268 L4.24937523,29.8829268 Z"></path>
                                <path d="M47.2076895,28.5892683 C47.2076895,25.4209756 46.06922,23.2268293 45.0927616,21.5190244 C43.7927689,19.4073171 42.5742699,17.6190244 42.5742699,15.5073171 C42.5742699,13.1507317 44.3622477,10.9570732 46.8807394,10.9570732 C46.9944399,10.9570732 47.1022847,10.9712195 47.2130573,10.977561 C42.6503956,6.79902439 36.5715638,4.24780488 29.8949501,4.24780488 C20.9355416,4.24780488 13.0531165,8.84292683 8.46751941,15.8029268 C9.06920518,15.8209756 9.63624399,15.8336585 10.1178854,15.8336585 C12.8003401,15.8336585 16.9526063,15.5082927 16.9526063,15.5082927 C18.3350684,15.4268293 18.4980555,17.4565854 17.1170573,17.62 C17.1170573,17.62 15.7277634,17.7834146 14.1818262,17.8643902 L23.5208872,45.6326829 L29.1332052,28.8068293 L25.1375823,17.8634146 C23.7565841,17.782439 22.4482957,17.6190244 22.4482957,17.6190244 C21.0663216,17.5380488 21.2283327,15.4258537 22.6103068,15.5073171 C22.6103068,15.5073171 26.8455305,15.8326829 29.3654861,15.8326829 C32.0474529,15.8326829 36.200207,15.5073171 36.200207,15.5073171 C37.5836451,15.4258537 37.7461442,17.4556098 36.364658,17.6190244 C36.364658,17.6190244 34.9724362,17.782439 33.429427,17.8634146 L42.6972421,45.4214634 L45.2552606,36.8765854 C46.363963,33.3307317 47.2076895,30.7839024 47.2076895,28.5892683 L47.2076895,28.5892683 Z"></path>
                                <path d="M30.3448725,32.1253659 L22.6503216,54.4760976 C24.947756,55.1512195 27.3774344,55.5204878 29.8949501,55.5204878 C32.8814196,55.5204878 35.7454048,55.0043902 38.411268,54.0673171 C38.3424621,53.957561 38.28,53.8409756 38.2287616,53.7141463 L30.3448725,32.1253659 L30.3448725,32.1253659 Z"></path>
                                <path d="M52.3979002,17.5834146 C52.5081848,18.4 52.570647,19.2765854 52.570647,20.2195122 C52.570647,22.8209756 52.0846137,25.7453659 50.620658,29.4019512 L42.7870314,52.042439 C50.4113124,47.5980488 55.539549,39.3409756 55.539549,29.8834146 C55.540037,25.4263415 54.4010795,21.235122 52.3979002,17.5834146 L52.3979002,17.5834146 Z"></path>
                                <path d="M29.8949501,0 C13.4112976,0 0,13.4053659 0,29.8829268 C0,46.362439 13.4112976,59.7673171 29.8949501,59.7673171 C46.3781146,59.7673171 59.7913641,46.362439 59.7913641,29.8829268 C59.7908762,13.4053659 46.3781146,0 29.8949501,0 L29.8949501,0 Z M29.8949501,58.397561 C14.1671867,58.397561 1.37075046,45.6058537 1.37075046,29.8829268 C1.37075046,14.1609756 14.1666987,1.3702439 29.8949501,1.3702439 C45.6222255,1.3702439 58.4176858,14.1609756 58.4176858,29.8829268 C58.4176858,45.6058537 45.6222255,58.397561 29.8949501,58.397561 L29.8949501,58.397561 Z"></path>
                            </g>
                        </g>
                    </g>
                </g>
            </g>
        </g>
    </g>
</svg>